<svg xmlns="http://www.w3.org/2000/svg" viewBox="0 0 600 600"><rect width="600" height="600" rx="40" fill="#111920"/><ellipse cx="300" cy="505" rx="170" ry="32" fill="#000" opacity=".25"/><g transform="translate(115 65)"><path d="M190 20c52 20 84 74 70 130-9 38-36 63-65 78 55 28 79 75 73 127H47c-6-52 18-99 73-127-29-15-56-40-65-78C41 94 75 40 127 20l31 45z" fill="#00e0b8"/><circle cx="158" cy="120" r="62" fill="#0b0d12"/><circle cx="136" cy="115" r="9" fill="#eaf7f3"/><circle cx="180" cy="115" r="9" fill="#eaf7f3"/><path d="M135 151q23 20 46 0" fill="none" stroke="#eaf7f3" stroke-width="7" stroke-linecap="round"/></g><text x="300" y="565" text-anchor="middle" fill="#9db0aa" font-family="Arial" font-size="25">Figuras 3D</text></svg>